<?xml version="1.0" encoding="UTF-8"?>
<svg width="512" height="512" viewBox="0 0 512 512" fill="none" xmlns="http://www.w3.org/2000/svg">
  <circle cx="256" cy="256" r="240" fill="#00538C"/>
  <path d="M256 32c123.712 0 224 100.288 224 224S379.712 480 256 480 32 379.712 32 256 132.288 32 256 32zm0 32C149.984 64 64 149.984 64 256s85.984 192 192 192 192-85.984 192-192S362.016 64 256 64zm0 32c88.224 0 160 71.776 160 160s-71.776 160-160 160S96 344.224 96 256 167.776 96 256 96zm0 32c-70.692 0-128 57.308-128 128s57.308 128 128 128 128-57.308 128-128-57.308-128-128-128z" fill="#FFFFFF"/>
  <path d="M256 160c52.935 0 96 43.065 96 96s-43.065 96-96 96-96-43.065-96-96 43.065-96 96-96zm0 32c-35.346 0-64 28.654-64 64s28.654 64 64 64 64-28.654 64-64-28.654-64-64-64z" fill="#FFFFFF"/>
  <circle cx="256" cy="256" r="48" fill="#FFFFFF"/>
</svg>
